<svg width="704" height="96" viewBox="0 0 704 96" fill="none" xmlns="http://www.w3.org/2000/svg">
<path d="M537.142 37.4235C545.271 40.5975 556.173 41.9143 564.487 44.4671C574.02 47.3949 581.841 53.0991 581.808 66.4343C581.774 82.3186 570.326 95.5034 547.681 95.4132C539.026 95.4827 527.363 91.9469 519.954 87.456L518.087 65.2444L520.312 65.2529C523.183 80.7433 533.788 90.5793 549.175 90.6413C561.056 90.6902 570.542 85.1561 572.722 74.5748C575.695 60.1286 564.827 56.5758 562.059 55.5889C555.027 53.0718 544.278 51.6742 534.754 48.5199C524.498 45.1194 517.573 38.6059 517.602 27.0132C517.638 10.5979 532.664 0.556108 551.962 0.696152C563.805 0.782623 573.432 4.69259 574.879 5.48962L576.383 24.9727H574.429C572.139 12.3734 562.335 5.16912 549.785 5.1193C536.062 5.06573 527.904 13.2325 526.806 21.0214C525.506 30.2775 530.847 34.9779 537.135 37.4329L537.142 37.4235ZM19.5349 37.4329C13.2432 34.9779 7.90555 30.2775 9.20543 21.0214C10.3032 13.2325 18.4662 5.06573 32.184 5.1193C44.7344 5.16912 54.5375 12.3734 56.8281 24.9727H58.7812L57.2773 5.48962C55.8299 4.69165 46.1988 0.780743 34.3608 0.696152C15.0629 0.560807 0.0367475 10.6026 9.15903e-05 27.0132C-0.0290452 38.605 6.89611 45.1194 17.1513 48.5199C26.6753 51.6742 37.4239 53.0718 44.4562 55.5889C47.2233 56.5758 58.0922 60.1286 55.1193 74.5748C52.9397 85.1552 43.4533 90.6902 31.5731 90.6413C16.1851 90.5793 5.58025 80.7433 2.70981 65.2529L0.485077 65.2444L2.35265 87.4579C9.75809 91.9487 21.4203 95.4846 30.0796 95.4151C52.7254 95.509 64.1733 82.3176 64.2062 66.4362C64.2391 53.101 56.4173 47.3967 46.8858 44.469C38.5715 41.9153 27.6706 40.5994 19.5405 37.4254L19.5349 37.4329ZM694.68 10.1882C694.68 4.06474 700.103 4.28749 703.697 4.28749V2.30055H674.542V4.28749C678.16 4.28749 683.584 4.06568 683.584 10.1882L683.56 86.2464C683.56 92.3736 678.136 92.1471 674.542 92.1471V94.133H703.691V92.1471C700.073 92.1471 694.649 92.3736 694.649 86.2464L694.68 10.1882ZM439.711 15.852L468.154 94.1312H476.587L504.459 13.7598C507.454 5.1287 511.442 4.28092 517.182 4.28092V2.29868H489.545V4.28092C491.737 4.18572 493.933 4.3361 496.091 4.72924C499.956 5.6917 500.174 9.02645 499.866 11.3085C499.459 13.4015 498.864 15.4535 498.088 17.4395L475.849 82.2923H475.586L453.456 21.387C452.174 18.175 451.184 14.8541 450.499 11.4645C450.029 8.27359 451.169 6.23401 452.587 5.34957C453.972 4.49051 455.322 4.28843 458.696 4.28843V2.30619H426.552V4.28843C434.024 4.28843 436.676 7.50005 439.71 15.8567L439.711 15.852ZM210.977 11.2512C212.342 7.44272 210.931 5.52722 208.822 4.75744C207.408 4.36328 205.938 4.20638 204.472 4.29313V2.30713H222.239L251.764 80.5901C254.955 88.5632 257.18 92.1574 265.075 92.1574V94.1396H232.931V92.1574C236.302 92.1574 237.651 91.96 239.021 91.0962C240.431 90.2118 241.542 88.1722 241.032 84.9813C240.301 81.5882 239.267 78.2675 237.944 75.0588L233.367 62.8994H197.447L191.73 78.9923C190.929 80.9761 190.31 83.0285 189.88 85.1242C189.542 87.4062 189.719 90.7372 193.573 91.7034C195.722 92.0932 197.908 92.2423 200.09 92.148V94.1302H172.462V92.148C178.203 92.148 182.237 91.2438 185.313 82.6738L210.972 11.2418L210.977 11.2512ZM231.714 58.511L215.018 14.1414H214.751L199.001 58.511H231.714ZM292.218 52.2137V52.4562L329.182 94.1284H348.787V92.1423C344.922 92.1423 339.106 90.0492 333.279 83.5028L307.772 54.8247C324.06 53.0107 337.802 44.4859 337.802 27.1702C337.802 12.5511 326.14 2.29585 304.194 2.29585H269.728V4.2828C273.351 4.2828 278.775 4.05628 278.775 10.1835L278.746 86.2417C278.746 92.3651 273.322 92.1423 269.728 92.1423V94.1284H298.888V92.1423C295.265 92.1423 289.841 92.3642 289.841 86.2417L289.866 6.43798H297.02C305.812 6.43798 327.003 6.01032 327.003 28.0471C327.003 50.9439 305.813 52.2137 297.02 52.2137H292.218ZM605.78 10.1825C605.78 4.0591 611.204 4.28186 614.797 4.28186V2.29491H585.641V4.28186C589.259 4.28186 594.683 4.06004 594.683 10.1825L594.658 86.2408C594.658 92.3679 589.235 92.1414 585.641 92.1414V94.1274H614.796V92.1414C611.177 92.1414 605.753 92.3679 605.753 86.2408L605.78 10.1825ZM654.159 84.7416L618.057 43.6456C618.057 43.6456 644.374 14.8942 647.178 11.8771C651.225 7.48595 655.307 4.2828 663.648 4.2828V2.29585H633.407V4.2828C634.27 4.2828 639.008 4.20008 640.582 4.75274C643.58 5.80167 643.991 8.82343 640.286 12.8819L607.969 48.1026V48.222L647.906 94.1302H667.318V92.148C662.954 92.148 657.465 88.504 654.159 84.7416ZM166.12 2.29868V4.28561C168.312 4.18911 170.508 4.33823 172.666 4.73018C176.536 5.69264 176.919 9.02739 176.614 11.3095C176.226 13.4006 175.651 15.4525 174.895 17.4404L152.661 82.2932H152.41L131.94 21.3795C130.736 18.1631 129.83 14.8429 129.234 11.4608C128.848 8.26983 130.036 6.22556 131.479 5.34206C132.923 4.45856 134.308 4.29313 137.594 4.28561V2.29868H105.754V4.28561C113.227 4.28561 115.784 7.49253 118.605 15.8463L126.299 38.854L111.668 82.2904H111.417L90.6258 21.3786C89.404 18.1632 88.4778 14.8433 87.8587 11.4598C87.4555 8.26889 88.636 6.22462 90.0712 5.34112C91.4735 4.48111 92.8467 4.28467 96.2144 4.28467V2.29774H64.1762V4.28467C71.6474 4.28467 74.2255 7.4916 77.0922 15.8454L103.727 94.1284H112.268L128.569 45.6401L144.779 94.1302H153.323L180.99 13.7588C183.942 5.16442 188.014 4.28467 193.759 4.28467V2.29774L166.12 2.29868ZM390.806 0.680176C420.816 0.680176 432.725 26.1673 432.725 46.9174C432.725 71.397 415.549 95.4282 388.82 95.4282C361.614 95.4282 346.478 74.0926 346.478 48.3442C346.478 20.48 367.022 0.680176 390.807 0.680176H390.806ZM362.461 68.0989C367.364 77.0834 374.333 83.7622 382.212 87.0716C389.269 89.9761 397.174 90.0471 404.282 87.2699C421.742 80.2837 422.273 57.8644 422.392 55.4253C423.301 37.3229 415.471 18.4874 401.056 10.6562C393.4 6.50283 381.6 4.76778 371.079 10.7878C363.56 15.0897 356.605 23.593 355.688 39.8306C355.269 49.7 357.616 59.4901 362.464 68.097" fill="#1A1818"/>
</svg>
