<svg width="19" height="19" viewBox="0 0 19 19" fill="none" xmlns="http://www.w3.org/2000/svg">
<mask id="mask0" mask-type="alpha" maskUnits="userSpaceOnUse" x="0" y="0" width="19" height="19">
<path d="M0 0.000488281H18.049V18.0246H0V0.000488281Z" fill="white"/>
</mask>
<g mask="url(#mask0)">
<path fill-rule="evenodd" clip-rule="evenodd" d="M16.0398 2.98894C16.0398 2.43493 15.5838 1.98493 15.0358 1.98993C14.7716 1.99254 14.519 2.0988 14.3323 2.28583C14.1457 2.47286 14.0399 2.72571 14.0378 2.98994C14.0378 3.53694 14.4878 3.99294 15.0418 3.99294C15.1733 3.99268 15.3035 3.96649 15.4248 3.91587C15.5462 3.86525 15.6564 3.79119 15.7491 3.69793C15.8418 3.60467 15.9151 3.49405 15.965 3.37239C16.0149 3.25073 16.0403 3.12043 16.0398 2.98894ZM9.03982 3.99894C8.38222 3.99829 7.73094 4.12723 7.12319 4.3784C6.51544 4.62957 5.96315 4.99804 5.49788 5.46276C5.0326 5.92748 4.66347 6.47934 4.41157 7.08679C4.15968 7.69424 4.02996 8.34537 4.02983 9.00298C4.03105 10.3203 4.55129 11.5842 5.47783 12.5206C6.40436 13.4571 7.66256 13.9908 8.97982 14.006C9.64158 14.0127 10.2981 13.8884 10.9116 13.6401C11.525 13.3918 12.0832 13.0245 12.554 12.5594C13.0248 12.0943 13.3988 11.5406 13.6545 10.9302C13.9102 10.3198 14.0425 9.66477 14.0438 9.00298C14.0438 8.34584 13.9144 7.69514 13.6629 7.08802C13.4114 6.4809 13.0429 5.92926 12.5782 5.46459C12.1135 4.99992 11.5619 4.63133 10.9548 4.37985C10.3477 4.12838 9.69696 3.99894 9.03982 3.99894ZM18.0428 9.08898C18.0428 10.415 18.0608 11.749 18.0368 13.075C18.0188 14.529 17.4458 15.753 16.3688 16.732C15.7776 17.2711 15.0625 17.6558 14.2868 17.852C13.898 17.9563 13.4973 18.0094 13.0948 18.01C10.3848 18.01 7.67083 18.042 4.96183 18.005C3.02683 17.975 1.57183 17.055 0.609827 15.369C0.211303 14.662 0.00575965 13.8626 0.0138273 13.051C0.0078273 10.347 -0.0171727 7.64497 0.0198273 4.94295C0.0438273 3.03094 0.944827 1.58893 2.59483 0.626922C3.34983 0.188919 4.16983 -8.24479e-05 5.03983 -8.24479e-05C7.72983 -8.24479e-05 10.4278 -0.00608246 13.1178 0.00691763C14.3098 0.0119177 15.3698 0.42692 16.2758 1.20493C17.162 1.94419 17.7538 2.97665 17.9438 4.11495C17.9988 4.41895 18.0228 4.72995 18.0228 5.03995C18.0478 6.37996 18.0418 7.72997 18.0418 9.08798" fill="#757982"/>
</g>
<path fill-rule="evenodd" clip-rule="evenodd" d="M9.02839 5.9977C8.6339 5.99823 8.24337 6.07645 7.87911 6.2279C7.51485 6.37935 7.18399 6.60107 6.90541 6.88038C6.62684 7.1597 6.40601 7.49116 6.25553 7.85582C6.10505 8.22048 6.02787 8.61121 6.02839 9.0057C6.02892 9.40019 6.10714 9.79072 6.25859 10.155C6.41004 10.5192 6.63175 10.8501 6.91107 11.1287C7.19039 11.4073 7.52184 11.6281 7.8865 11.7786C8.25117 11.929 8.6419 12.0062 9.03639 12.0057C9.8331 12.0046 10.5968 11.6871 11.1594 11.123C11.722 10.5589 12.0375 9.79441 12.0364 8.9977C12.0353 8.20099 11.7178 7.43734 11.1537 6.87473C10.5896 6.31212 9.8251 5.99664 9.02839 5.9977ZM9.04039 4.00071C9.69717 4.00097 10.3475 4.13062 10.9541 4.38226C11.5608 4.63391 12.1119 5.0026 12.576 5.46729C13.0402 5.93198 13.4082 6.48356 13.6591 7.09052C13.91 7.69748 14.0389 8.34793 14.0384 9.0047C14.0384 11.7857 11.7554 14.0377 8.97339 14.0077C6.26539 13.9767 4.02539 11.7687 4.02539 9.0047C4.02513 8.34657 4.15474 7.69485 4.40681 7.0869C4.65888 6.47895 5.02844 5.92672 5.49433 5.46186C5.96021 4.997 6.51325 4.62865 7.12175 4.37791C7.73026 4.12718 8.38226 3.999 9.04039 4.00071ZM16.0404 2.99071C16.0404 3.53871 15.5904 3.99471 15.0364 3.99471C14.7703 3.99366 14.5153 3.8876 14.3269 3.6996C14.1385 3.5116 14.032 3.25684 14.0304 2.99071C14.0307 2.72584 14.136 2.47189 14.3233 2.2846C14.5106 2.09731 14.7645 1.99197 15.0294 1.99171C15.2959 1.99064 15.5519 2.09534 15.7412 2.28282C15.9306 2.4703 16.0378 2.72525 16.0394 2.99171" fill="white"/>
<path fill-rule="evenodd" clip-rule="evenodd" d="M9.02832 5.99805C9.42281 5.99765 9.81352 6.07497 10.1781 6.22557C10.5427 6.37617 10.8741 6.59712 11.1533 6.87579C11.4326 7.15446 11.6542 7.4854 11.8055 7.84971C11.9568 8.21403 12.0349 8.60458 12.0353 8.99908C12.0357 9.39357 11.9584 9.78428 11.8078 10.1489C11.6572 10.5135 11.4363 10.8449 11.1576 11.1241C10.8789 11.4034 10.548 11.625 10.1837 11.7763C9.81936 11.9276 9.42881 12.0057 9.03432 12.0061C8.23843 12.0045 7.47552 11.688 6.91227 11.1257C6.34902 10.5634 6.03123 9.80097 6.02832 9.00508C6.02753 8.20853 6.34312 7.44428 6.9057 6.88038C7.46828 6.31648 8.23178 5.99911 9.02832 5.99805Z" fill="#757982"/>
</svg>
