<svg width="16" height="19" viewBox="0 0 16 19" fill="none" xmlns="http://www.w3.org/2000/svg">
<mask id="mask0" mask-type="alpha" maskUnits="userSpaceOnUse" x="0" y="0" width="16" height="19">
<path d="M0 0H16V19H0V0Z" fill="white"/>
</mask>
<g mask="url(#mask0)">
<path fill-rule="evenodd" clip-rule="evenodd" d="M6.57653 12.5678C6.03653 15.1838 5.37653 17.6908 3.42352 19.0009C2.81952 15.0478 4.30853 12.0778 5.00053 8.92578C3.82152 7.09377 5.14253 3.40474 7.62753 4.31275C10.6865 5.43075 4.97953 11.1278 8.81053 11.8398C12.8105 12.5818 14.4445 5.42675 11.9635 3.09974C8.37853 -0.260289 1.52952 3.02374 2.37152 7.83377C2.57652 9.00978 3.89252 9.36678 2.89752 10.9898C0.603524 10.5198 -0.0814764 8.84878 0.00752366 6.61976C0.147524 2.97174 3.55352 0.417716 6.96953 0.0647136C11.2895 -0.38129 15.3445 1.52972 15.9045 5.28475C16.5345 9.52178 13.9545 14.1108 9.33453 13.7818C8.08253 13.6918 7.55653 13.1188 6.57453 12.5678H6.57653Z" fill="#757982"/>
</g>
</svg>
