<svg width="18" height="20" viewBox="0 0 18 20" fill="none" xmlns="http://www.w3.org/2000/svg">
<path d="M15.2901 4.68842C15.1618 4.62214 15.037 4.54949 14.916 4.47072C14.5642 4.23817 14.2417 3.96414 13.9554 3.65456C13.2389 2.83483 12.9714 2.00322 12.8728 1.42098H12.8768C12.7944 0.937693 12.8285 0.625 12.8336 0.625H9.57055V13.2427C9.57055 13.4122 9.57055 13.5796 9.56342 13.745C9.56342 13.7656 9.56144 13.7846 9.56026 13.8068C9.56026 13.8159 9.56026 13.8254 9.55828 13.8349C9.55828 13.8373 9.55828 13.8396 9.55828 13.842C9.52388 14.2947 9.37876 14.7321 9.13567 15.1155C8.89258 15.499 8.55899 15.8169 8.16422 16.0411C7.75279 16.2752 7.28745 16.398 6.8141 16.3974C5.29378 16.3974 4.06161 15.1577 4.06161 13.6267C4.06161 12.0957 5.29378 10.856 6.8141 10.856C7.10189 10.8557 7.38791 10.901 7.66154 10.9902L7.6655 7.66771C6.83483 7.56041 5.99094 7.62643 5.18706 7.8616C4.38318 8.09676 3.63676 8.49598 2.9949 9.03406C2.43247 9.52273 1.95964 10.1058 1.59767 10.757C1.45993 10.9945 0.940228 11.9488 0.877293 13.4976C0.837712 14.3768 1.10172 15.2875 1.22759 15.6639V15.6719C1.30675 15.8935 1.61351 16.6499 2.11342 17.2876C2.51653 17.7991 2.99279 18.2484 3.52687 18.6211V18.6131L3.53479 18.6211C5.11448 19.6945 6.86595 19.6241 6.86595 19.6241C7.16915 19.6118 8.1848 19.6241 9.33821 19.0774C10.6175 18.4714 11.3458 17.5686 11.3458 17.5686C11.811 17.0291 12.181 16.4143 12.4398 15.7506C12.7351 14.9744 12.8336 14.0435 12.8336 13.6714V6.97741C12.8732 7.00116 13.4004 7.34987 13.4004 7.34987C13.4004 7.34987 14.16 7.83672 15.3451 8.15377C16.1953 8.37938 17.3408 8.42688 17.3408 8.42688V5.18754C16.9394 5.23108 16.1244 5.10442 15.2901 4.68842Z" fill="#757982"/>
</svg>
