<svg width="22" height="19" viewBox="0 0 22 19" fill="none" xmlns="http://www.w3.org/2000/svg">
<path fill-rule="evenodd" clip-rule="evenodd" d="M22 2.25C21.19 2.63 20.32 2.889 19.407 3.004C20.3645 2.38489 21.0687 1.4434 21.392 0.35C20.5135 0.905236 19.543 1.29909 18.526 1.513C17.703 0.583 16.53 0 15.231 0C12.738 0 10.717 2.148 10.717 4.796C10.717 5.172 10.757 5.538 10.834 5.89C7.084 5.69 3.757 3.78 1.531 0.878C1.12754 1.61739 0.917379 2.4467 0.92 3.289C0.92 4.953 1.717 6.422 2.927 7.282C2.20606 7.25703 1.50305 7.05067 0.883 6.682V6.742C0.883 9.066 2.439 11.004 4.503 11.444C3.84086 11.6368 3.14176 11.6656 2.466 11.528C3.04 13.433 4.706 14.819 6.682 14.858C5.137 16.145 3.191 16.912 1.076 16.912C0.716285 16.9122 0.356912 16.8898 0 16.845C1.996 18.205 4.37 19 6.918 19C15.221 19 19.761 11.692 19.761 5.352C19.761 5.144 19.757 4.938 19.748 4.732C20.64 4.04442 21.4025 3.20366 22 2.249" fill="#757982"/>
</svg>
