<svg width="27" height="19" viewBox="0 0 27 19" fill="none" xmlns="http://www.w3.org/2000/svg">
<mask id="mask0" mask-type="alpha" maskUnits="userSpaceOnUse" x="0" y="0" width="27" height="19">
<path d="M0 0H27V19H0V0Z" fill="white"/>
</mask>
<g mask="url(#mask0)">
<path fill-rule="evenodd" clip-rule="evenodd" d="M26.436 2.967C26.2833 2.39288 25.9824 1.86897 25.5635 1.44775C25.1446 1.02654 24.6223 0.722811 24.049 0.567C21.943 0 13.5 0 13.5 0C13.5 0 5.057 0 2.951 0.567C2.37772 0.722811 1.85545 1.02654 1.43652 1.44775C1.01758 1.86897 0.716695 2.39288 0.564 2.967C0 5.084 0 9.5 0 9.5C0 9.5 0 13.916 0.564 16.033C0.716695 16.6071 1.01758 17.131 1.43652 17.5522C1.85545 17.9735 2.37772 18.2772 2.951 18.433C5.057 19 13.5 19 13.5 19C13.5 19 21.943 19 24.049 18.433C24.6223 18.2772 25.1446 17.9735 25.5635 17.5522C25.9824 17.131 26.2833 16.6071 26.436 16.033C27 13.916 27 9.5 27 9.5C27 9.5 27 5.084 26.436 2.967Z" fill="#757982"/>
</g>
<path fill-rule="evenodd" clip-rule="evenodd" d="M10 13.9994L17 9.99945L10 5.99951V13.9994Z" fill="white"/>
</svg>
