<svg width="20" height="18" viewBox="0 0 20 18" fill="none" xmlns="http://www.w3.org/2000/svg">
<g clip-path="url(#clip0)">
<path d="M9.90984 17.93L7.60984 13.8C7.58984 13.77 7.52984 13.74 7.46984 13.74H2.06984C1.24984 13.74 0.589844 13.07 0.589844 12.26V1.55001C0.589844 0.730007 1.25984 0.0700073 2.06984 0.0700073H17.9198C18.7398 0.0700073 19.3998 0.740007 19.3998 1.55001V12.26C19.3998 13.08 18.7298 13.74 17.9198 13.74H12.4798C12.4198 13.74 12.3698 13.77 12.3298 13.82L9.90984 17.93ZM2.06984 0.820007C1.66984 0.820007 1.33984 1.15001 1.33984 1.55001V12.26C1.33984 12.66 1.66984 12.99 2.06984 12.99H7.46984C7.78984 12.99 8.07984 13.15 8.24984 13.41L9.92984 16.42L11.6998 13.42C11.8898 13.14 12.1698 12.99 12.4798 12.99H17.9198C18.3198 12.99 18.6498 12.66 18.6498 12.26V1.55001C18.6498 1.15001 18.3198 0.820007 17.9198 0.820007H2.06984Z" fill="black"/>
</g>
<defs>
<clipPath id="clip0">
<rect width="19" height="18" fill="white" transform="translate(0.5)"/>
</clipPath>
</defs>
</svg>
