<svg width="16" height="16" viewBox="0 0 16 16" fill="none" xmlns="http://www.w3.org/2000/svg">
<path d="M15.8515 15.1485L11.1386 10.4356C12.0891 9.32673 12.6634 7.89109 12.6634 6.32673C12.6634 2.83168 9.82178 0 6.33663 0C2.84158 0 0 2.84158 0 6.32673C0 9.82178 2.84158 12.6634 6.33663 12.6634C7.90099 12.6634 9.33663 12.0891 10.4455 11.1386L15.1584 15.8515C15.2574 15.9505 15.3861 16 15.505 16C15.6238 16 15.7624 15.9505 15.8515 15.8515C16.0495 15.6535 16.0495 15.3366 15.8515 15.1485ZM0.990099 6.32673C0.990099 3.38614 3.38614 0.990099 6.33663 0.990099C9.28713 0.990099 11.6733 3.38614 11.6733 6.32673C11.6733 9.26733 9.27723 11.6733 6.33663 11.6733C3.39604 11.6733 0.990099 9.26733 0.990099 6.32673Z" fill="#8C8985"/>
</svg>
